<?xml version="1.0" encoding="UTF-8"?>
<svg version="1.1" xmlns="http://www.w3.org/2000/svg" width="500" height="500">
<path d="M0 0 C1.485 0.99 1.485 0.99 3 2 C3 2.66 3 3.32 3 4 C3.54495117 4.21825439 4.08990234 4.43650879 4.65136719 4.66137695 C7.77808587 6.44347659 10.08899801 8.8619838 12.578125 11.41796875 C13.37352692 12.22117302 13.37352692 12.22117302 14.18499756 13.04060364 C15.87817056 14.75153752 17.56452208 16.46898768 19.25 18.1875 C21.4600922 20.4344164 23.67339572 22.6780946 25.890625 24.91796875 C26.42672897 25.4596167 26.96283295 26.00126465 27.5151825 26.55932617 C30.93644034 29.99339227 34.46087856 33.24064047 38.15380859 36.38305664 C41.66458067 39.45788386 44.90945227 42.80617273 48.1875 46.125 C48.87263672 46.81464844 49.55777344 47.50429687 50.26367188 48.21484375 C53.04956492 51.01950605 55.83076959 53.82874287 58.609375 56.640625 C61.3711782 59.3663262 64.201064 62.00471647 67.0625 64.625 C67.57876953 65.10195313 68.09503906 65.57890625 68.62695312 66.0703125 C70.80789588 68.07066764 72.96953866 69.97801966 75.37109375 71.7109375 C75.90863281 72.13632812 76.44617188 72.56171875 77 73 C77 73.66 77 74.32 77 75 C77.66 75 78.32 75 79 75 C80.4453125 76.50390625 80.4453125 76.50390625 82.125 78.5625 C87.50288156 84.89644083 87.50288156 84.89644083 94 90 C97.39865016 90.1344095 97.39865016 90.1344095 100 89 C100 88.34 100 87.68 100 87 C101.12019531 86.46632813 102.24039063 85.93265625 103.39453125 85.3828125 C109.27190247 82.44477404 114.6925977 78.81877317 120.19726562 75.24609375 C121.00228516 74.72917969 121.80730469 74.21226562 122.63671875 73.6796875 C123.35561279 73.21288574 124.07450684 72.74608398 124.81518555 72.26513672 C127.14147447 70.91807792 129.48483645 69.94011923 132 69 C132 68.34 132 67.68 132 67 C137.75 64 137.75 64 140 64 C140 63.34 140 62.68 140 62 C145.75 59 145.75 59 148 59 C148 58.34 148 57.68 148 57 C148.99 57 149.98 57 151 57 C151 56.34 151 55.68 151 55 C152.6029053 54.18501438 154.20737278 53.37310073 155.8125 52.5625 C156.70582031 52.11003906 157.59914063 51.65757812 158.51953125 51.19140625 C161 50 161 50 164 49 C164.19803811 56.75649265 164.17219516 64.46431175 163.375 72.1875 C163.25898438 73.39792969 163.14296875 74.60835938 163.0234375 75.85546875 C161.67246981 80.00634276 159.73193732 80.90821348 156 83 C154.29006566 84.6222454 152.62652316 86.29413425 151 88 C149.87592818 89.10511157 148.75085855 90.20920877 147.625 91.3125 C145.14393445 93.78284821 142.82835841 96.33155171 140.5625 99 C137.66755884 102.35813175 134.56705721 105.21057842 131.18359375 108.06640625 C127.70381937 111.1477807 124.51736381 114.51458826 121.296875 117.86328125 C119.2088092 119.80575062 117.54532457 120.81510753 115 122 C114.13375 123.0828125 114.13375 123.0828125 113.25 124.1875 C110.773221 127.28347375 108.04426442 129.65251015 105.0390625 132.21875 C102.21734625 134.68369753 99.61576151 137.31884445 97 140 C93.99390037 138.99796679 92.93823179 138.39971554 91 136 C91 135.01 91 134.02 91 133 C90.34 133 89.68 133 89 133 C87.94959204 131.36463432 86.96384239 129.6878346 86 128 C84.32987013 125.47380182 82.59883009 122.98977717 80.875 120.5 C80.39506592 119.80237549 79.91513184 119.10475098 79.4206543 118.38598633 C77.06297606 114.96289746 74.68940053 111.55298573 72.27734375 108.16796875 C71.86049316 107.57886719 71.44364258 106.98976563 71.01416016 106.3828125 C69.87537668 104.77620696 68.72892279 103.17504634 67.58203125 101.57421875 C66 99 66 99 66 96 C64.515 95.505 64.515 95.505 63 95 C61.49401543 93.00940125 60.14676056 91.03983728 58.8125 88.9375 C57.93571046 87.58671046 57.05803986 86.23649258 56.1796875 84.88671875 C55.44057129 83.74468994 55.44057129 83.74468994 54.68652344 82.57958984 C52.7555513 79.62610813 50.79037581 76.6970791 48.8203125 73.76953125 C48.09739014 72.69388916 47.37446777 71.61824707 46.62963867 70.51000977 C45.17838447 68.35179644 43.72544541 66.19471503 42.27075195 64.03881836 C41.60261475 63.04116455 40.93447754 62.04351074 40.24609375 61.015625 C39.64466553 60.12133789 39.0432373 59.22705078 38.42358398 58.30566406 C37 56 37 56 36 53 C35.34 53 34.68 53 34 53 C32.4921875 50.8828125 32.4921875 50.8828125 30.875 48.125 C30.33617187 47.22007812 29.79734375 46.31515625 29.2421875 45.3828125 C28 43 28 43 28 41 C27.34 41 26.68 41 26 41 C24.34375 38.98828125 24.34375 38.98828125 22.5 36.3125 C21.8915625 35.44238281 21.283125 34.57226562 20.65625 33.67578125 C19 31 19 31 17.90625 28.23046875 C17.21861217 25.8341808 17.21861217 25.8341808 15 25 C14.04643521 23.35657749 13.09819932 21.70975492 12.18164062 20.04541016 C9.66010177 15.68064724 6.62738918 11.63091552 3.71484375 7.52148438 C3.23660156 6.83763672 2.75835937 6.15378906 2.265625 5.44921875 C1.83024414 4.83393311 1.39486328 4.21864746 0.94628906 3.5847168 C0 2 0 2 0 0 Z " fill="#F1F1F1" transform="translate(168,194)"/>
<path d="M0 0 C2 2 2 2 2.046875 4.65234375 C0.17561345 25.35933007 0.17561345 25.35933007 -4 30 C-7.14837155 32.31834632 -10.00922068 34 -14 34 C-14 34.66 -14 35.32 -14 36 C-15.6396875 36.7734375 -15.6396875 36.7734375 -17.3125 37.5625 C-21.87705531 39.83665567 -26.11398323 42.54005567 -30.38671875 45.31640625 C-31.68029297 46.14978516 -31.68029297 46.14978516 -33 47 C-33.87269531 47.56589844 -34.74539062 48.13179687 -35.64453125 48.71484375 C-38 50 -38 50 -41 50 C-41 50.66 -41 51.32 -41 52 C-42.5725165 52.89429374 -44.15853741 53.76487427 -45.75 54.625 C-46.63171875 55.11226562 -47.5134375 55.59953125 -48.421875 56.1015625 C-51 57 -51 57 -53.08984375 56.3515625 C-55.11804981 54.91647191 -56.96915913 53.41689073 -58.8125 51.75 C-62.00970866 48.8701173 -65.27674441 46.12521569 -68.65234375 43.45703125 C-70.27268417 41.70518495 -70.60666208 40.32517477 -71 38 C-49.38297872 26 -49.38297872 26 -46 26 C-46 25.34 -46 24.68 -46 24 C-44.5437455 23.32880451 -43.08492133 22.66318193 -41.625 22 C-40.81289062 21.62875 -40.00078125 21.2575 -39.1640625 20.875 C-37 20 -37 20 -35 20 C-35 19.34 -35 18.68 -35 18 C-32.23456804 16.48987869 -29.46183193 14.99369852 -26.6875 13.5 C-25.90181641 13.07074219 -25.11613281 12.64148438 -24.30664062 12.19921875 C-23.54931641 11.79316406 -22.79199219 11.38710937 -22.01171875 10.96875 C-20.96697388 10.40317383 -20.96697388 10.40317383 -19.90112305 9.82617188 C-18 9 -18 9 -15 9 C-15 8.34 -15 7.68 -15 7 C-10.05 4.69 -5.1 2.38 0 0 Z " fill="#EDEDED" transform="translate(272,165)"/>
<path d="M0 0 C0.27848562 21.75282126 0.27848562 21.75282126 -3 29 C-5.55988064 31.47730384 -6.38813866 32 -10 32 C-10 32.66 -10 33.32 -10 34 C-13 36 -13 36 -16 36 C-16 36.66 -16 37.32 -16 38 C-16.56847656 38.30292969 -17.13695312 38.60585937 -17.72265625 38.91796875 C-21.41741298 40.92263642 -25.00739086 42.91384157 -28.375 45.4375 C-33.61969276 49.30653564 -40.40592115 54.21292924 -47 55 C-48.65991211 53.87597656 -48.65991211 53.87597656 -50.27734375 52.140625 C-50.87353516 51.51929688 -51.46972656 50.89796875 -52.08398438 50.2578125 C-52.69564453 49.59523437 -53.30730469 48.93265625 -53.9375 48.25 C-57.77380042 44.16554017 -61.12590939 40.83648735 -66 38 C-66.495 36.515 -66.495 36.515 -67 35 C-66.34 35 -65.68 35 -65 35 C-64.67 34.34 -64.34 33.68 -64 33 C-61.7483187 31.67933091 -59.5036786 30.44727224 -57.1875 29.25 C-56.5169458 28.89873047 -55.8463916 28.54746094 -55.15551758 28.18554688 C-53.10733596 27.11646641 -51.05440539 26.05706324 -49 25 C-48.38898438 24.68353516 -47.77796875 24.36707031 -47.1484375 24.04101562 C-37.39445499 19 -37.39445499 19 -35 19 C-34.67 18.34 -34.34 17.68 -34 17 C-32.0556658 15.89467894 -30.06909902 14.86279072 -28.0625 13.875 C-26.98097656 13.33617187 -25.89945312 12.79734375 -24.78515625 12.2421875 C-22 11 -22 11 -20 11 C-20 10.34 -20 9.68 -20 9 C-17.87717331 7.99539469 -15.75166979 6.99644398 -13.625 6 C-12.44164062 5.443125 -11.25828125 4.88625 -10.0390625 4.3125 C-7 3 -7 3 -5 3 C-5 2.34 -5 1.68 -5 1 C-2 0 -2 0 0 0 Z " fill="#F0F0F0" transform="translate(302,203)"/>
<path d="M0 0 C0.66 0.33 1.32 0.66 2 1 C0.38405168 3.04119788 -1.2856382 5.04072937 -3 7 C-3.66 7 -4.32 7 -5 7 C-5.33 6.01 -5.66 5.02 -6 4 C-5.34 4 -4.68 4 -4 4 C-3.67 3.34 -3.34 2.68 -3 2 C-2.01 1.34 -1.02 0.68 0 0 Z " fill="#818181" transform="translate(241,234)"/>
<path d="M0 0 C0 3.63 0 7.26 0 11 C-0.33 11 -0.66 11 -1 11 C-1.33 8.36 -1.66 5.72 -2 3 C-2.99 3 -3.98 3 -5 3 C-5 2.34 -5 1.68 -5 1 C-2 0 -2 0 0 0 Z " fill="#656565" transform="translate(302,203)"/>
<path d="M0 0 C1.485 0.99 1.485 0.99 3 2 C3 2.66 3 3.32 3 4 C3.9590625 4.433125 3.9590625 4.433125 4.9375 4.875 C7 6 7 6 8 8 C7.01 8.33 6.02 8.66 5 9 C4.16094435 7.87926138 3.32892169 6.75325453 2.5 5.625 C2.0359375 4.99851563 1.571875 4.37203125 1.09375 3.7265625 C0 2 0 2 0 0 Z " fill="#888888" transform="translate(168,194)"/>
<path d="M0 0 C0.66 0 1.32 0 2 0 C2.103125 0.7425 2.20625 1.485 2.3125 2.25 C3.04253504 5.17014018 4.06789398 6.73187554 6 9 C2.66476748 7.61990379 0.81392049 6.15049348 -1 3 C-0.67 2.01 -0.34 1.02 0 0 Z " fill="#5E5E5E" transform="translate(202,202)"/>
</svg>
